# xmcd
#
# Track frame offsets:
#	150
#	19801
#	33595
#	44076
#	62982
#	77756
#	87967
#	105496
#	117952
#	133240
#	142641
#	158393
#	173026
#	184834
#	205135
#	219182
#	232193
#	250171
#	264200
#
# Disc length: 3731 seconds
#
# Revision: 0
# Processed by: cddbd v1.5PL3 Copyright (c) Steve Scherf et al.
# Submitted via: audiograbber 1.82.01
#
DISCID=010e9113
DTITLE=Various Artist - Muzica populara de petrecere
DYEAR=1900
DGENRE=
TTITLE0=Marioara de la Gorj
TTITLE1=Un tigan avea o casa
TTITLE2=Cine-a pus carciuma-n drum
TTITLE3=Nevasta
TTITLE4=Hai iu, iu
TTITLE5=Aseara ti-am luat basma
TTITLE6=Haideti fratilor la joc
TTITLE7=Marie si Marioara
TTITLE8=Hora la acordeon
TTITLE9=Intoarce-te Ioane
TTITLE10=Trandafir de la Moldova
TTITLE11=Pleaca nasu de la fini
TTITLE12=Hora mare
TTITLE13=Cip, cirip
TTITLE14=Fantana cu apa rece
TTITLE15=Flori de la badita
TTITLE16=Hai la hora mare
TTITLE17=Bun e vinul ghiurghiuliu
TTITLE18=Si-asa be' oamenii buni
EXTD=
EXTT0=
EXTT1=
EXTT2=
EXTT3=
EXTT4=
EXTT5=
EXTT6=
EXTT7=
EXTT8=
EXTT9=
EXTT10=
EXTT11=
EXTT12=
EXTT13=
EXTT14=
EXTT15=
EXTT16=
EXTT17=
EXTT18=
PLAYORDER=
